<mxfile host="65bd71144e" pages="2">
    <diagram name="Page-1" id="nKtN6wIFg5wTzeQDNyON">
        <mxGraphModel dx="978" dy="646" grid="1" gridSize="10" guides="1" tooltips="1" connect="1" arrows="1" fold="1" page="1" pageScale="1" pageWidth="827" pageHeight="1169" math="0" shadow="0">
            <root>
                <mxCell id="0"/>
                <mxCell id="1" parent="0"/>
                <UserObject label="" tags="Background" id="j5F-Mz4OmRAsj-ysuy_4-1">
                    <mxCell style="vsdxID=2;fillColor=#000000;gradientColor=none;shape=stencil(tVHLDoIwEPyaHktqVwl3xP9opEBjpWRbBf7e1sVIfJyMt9mZ2Uc7DErfqUEzKXxAd9KjqUPHYM+kNH2n0YSIGFQMysahbtFd+prqQSVnQmd3TRMm6ttABtvUJcVMzE7cywO5FR6jhA93kQGQG+c3ajEVeZbnn0aKiavJeI4uqGBcT+KiWYWt5nEdb6xql9kk+VHrYUX/euDXN//lwAien98Yaym7tf4aVqQoaKhu);strokeColor=#ff0000;spacingTop=-3;spacingBottom=-3;spacingLeft=-3;spacingRight=-3;points=[];labelBackgroundColor=none;rounded=0;html=1;whiteSpace=wrap;" parent="1" vertex="1">
                        <mxGeometry x="416.97" width="30" height="30" as="geometry"/>
                    </mxCell>
                </UserObject>
                <mxCell id="j5F-Mz4OmRAsj-ysuy_4-152" style="edgeStyle=orthogonalEdgeStyle;rounded=0;orthogonalLoop=1;jettySize=auto;html=1;" parent="1" source="j5F-Mz4OmRAsj-ysuy_4-2" target="j5F-Mz4OmRAsj-ysuy_4-3" edge="1">
                    <mxGeometry relative="1" as="geometry"/>
                </mxCell>
                <UserObject label="&lt;div style=&quot;font-size: 1px&quot;&gt;&lt;font style=&quot;font-size:11.64px;font-family:Helvetica;color:#000000;direction:ltr;letter-spacing:0px;line-height:120%;opacity:1&quot;&gt;Authenticate&lt;/font&gt;&lt;/div&gt;" tags="Background" id="j5F-Mz4OmRAsj-ysuy_4-2">
                    <mxCell style="verticalAlign=middle;align=center;overflow=width;vsdxID=3;fillColor=#ffffff;gradientColor=none;shape=stencil(nZBdDsIgEIRPs+8UEi9Q6wU8AZFVNiI0FH9PL+3EBI1PfduZ+SabDJl+8nZk0moqOZ35Lq54MlvSWqLnLKVeZAYy/TFlPuV0jQ56tJXUanHYodPNtFY2H/byYngbeChd0m1+9kCkED1btQMYJDZgp1ajH/0XXo1+gfVYxsBMEgK2bPPf8aqF4c3wBg==);strokeColor=#000000;spacingTop=-3;spacingBottom=-3;spacingLeft=-3;spacingRight=-3;points=[];labelBackgroundColor=none;rounded=1;html=1;whiteSpace=wrap;" parent="1" vertex="1">
                        <mxGeometry x="391.97" y="70" width="80" height="40" as="geometry"/>
                    </mxCell>
                </UserObject>
                <UserObject label="" tags="Background" id="j5F-Mz4OmRAsj-ysuy_4-3">
                    <mxCell style="vsdxID=5;fillColor=#ffffff;gradientColor=none;shape=stencil(fY9LDoAgDERP0z3SeALFe5iI0qhAEH+3F9KFxIW7mfa1nQI2m+m9Bim2GNysTxqiAWxBSrJGB4pJASrAZnRBT8HtdmDv+0xmtbojb7h4TuQJKW52NduOyYVsQVbij03iPcHpyt43TirxK6ge);strokeColor=#ff0000;strokeWidth=6;spacingTop=-3;spacingBottom=-3;spacingLeft=-3;spacingRight=-3;points=[];labelBackgroundColor=none;rounded=0;html=1;whiteSpace=wrap;" parent="1" vertex="1">
                        <mxGeometry x="331.97" y="125" width="200" height="10" as="geometry"/>
                    </mxCell>
                </UserObject>
                <UserObject label="&lt;div style=&quot;font-size: 1px&quot;&gt;&lt;font style=&quot;font-size:11.64px;font-family:Helvetica;color:#000000;direction:ltr;letter-spacing:0px;line-height:120%;opacity:1&quot;&gt;Continue with google&lt;/font&gt;&lt;/div&gt;" tags="Background" id="j5F-Mz4OmRAsj-ysuy_4-4">
                    <mxCell style="verticalAlign=middle;align=center;overflow=width;vsdxID=7;fillColor=#ffffff;gradientColor=none;shape=stencil(nZDNDsIgEISfZu8UTp5rfQGfgMgqGxEair9PL+3EBI2n3nZmvskmQ6afvB2ZtJpKTme+iyuezJa0lug5S6kXmYFMf0yZTzldo4MebSW1Whx26HQzrZXNh728GN4GHkqXdJufPRApRM9W7QAGiQ3YqdXoR/+FV6NfYD2WMTCThIAt2/x3vGpheDO8AQ==);strokeColor=#ff0000;strokeWidth=6;spacingTop=-3;spacingBottom=-3;spacingLeft=-3;spacingRight=-3;points=[];labelBackgroundColor=none;rounded=1;html=1;whiteSpace=wrap;" parent="1" vertex="1">
                        <mxGeometry x="171.97" y="195" width="120" height="60" as="geometry"/>
                    </mxCell>
                </UserObject>
                <UserObject label="&lt;div style=&quot;font-size: 1px&quot;&gt;&lt;font style=&quot;font-size:11.64px;font-family:Helvetica;color:#000000;direction:ltr;letter-spacing:0px;line-height:120%;opacity:1&quot;&gt;Continue with Email&lt;/font&gt;&lt;/div&gt;" tags="Background" id="j5F-Mz4OmRAsj-ysuy_4-5">
                    <mxCell style="verticalAlign=middle;align=center;overflow=width;vsdxID=9;fillColor=#ffffff;gradientColor=none;shape=stencil(nZDNDsIgEISfZu8UTp5rfQGfgMgqGxEair9PL+3EBI2n3nZmvskmQ6afvB2ZtJpKTme+iyuezJa0lug5S6kXmYFMf0yZTzldo4MebSW1Whx26HQzrZXNh728GN4GHkqXdJufPRApRM9W7QAGiQ3YqdXoR/+FV6NfYD2WMTCThIAt2/x3vGpheDO8AQ==);strokeColor=#ff0000;strokeWidth=6;spacingTop=-3;spacingBottom=-3;spacingLeft=-3;spacingRight=-3;points=[];labelBackgroundColor=none;rounded=1;html=1;whiteSpace=wrap;" parent="1" vertex="1">
                        <mxGeometry x="551.97" y="195" width="120" height="60" as="geometry"/>
                    </mxCell>
                </UserObject>
                <UserObject label="&lt;div style=&quot;font-size: 1px&quot;&gt;&lt;font style=&quot;font-size:11.64px;font-family:Helvetica;color:#000000;direction:ltr;letter-spacing:0px;line-height:120%;opacity:1&quot;&gt;Verify Token&lt;/font&gt;&lt;/div&gt;" tags="Background" id="j5F-Mz4OmRAsj-ysuy_4-7">
                    <mxCell style="verticalAlign=middle;align=center;overflow=width;vsdxID=14;fillColor=#ffffff;gradientColor=none;shape=stencil(UzV2Ls5ILEhVNTIoLinKz04tz0wpyVA1dlE1MsrMy0gtyiwBslSNXVWNndPyi1LTi/JL81Ig/IJEkEoQKze/DGRCBUSfoZmemTlIl5FBJUTEAMxzgyjOycxDUmxhrGdsTKxiQwMDFKWmJBkM043daAxH41VOvDsIhAaQgQjHtMycHEg0IMujhztQCBJnxq4A);strokeColor=#000000;spacingTop=-3;spacingBottom=-3;spacingLeft=-3;spacingRight=-3;points=[];labelBackgroundColor=none;rounded=0;html=1;whiteSpace=wrap;" parent="1" vertex="1">
                        <mxGeometry x="371.97" y="315" width="120" height="40" as="geometry"/>
                    </mxCell>
                </UserObject>
                <UserObject label="&lt;div style=&quot;font-size: 1px&quot;&gt;&lt;font style=&quot;font-size:11.64px;font-family:Helvetica;color:#000000;direction:ltr;letter-spacing:0px;line-height:120%;opacity:1&quot;&gt;Token expired / Token invalid&lt;/font&gt;&lt;/div&gt;" tags="Background" id="j5F-Mz4OmRAsj-ysuy_4-8">
                    <mxCell style="verticalAlign=middle;align=center;overflow=width;vsdxID=19;fillColor=none;gradientColor=none;shape=stencil(nZBRDoQgDERP03+WHsHFe5iISyOCQdT19kIaIxq//Jtp3zTpAFaTaUYNUkwx+F6v1EYD+AUpyRkdKCYFqACrzgf9C352LfuxyWRWg1/yhT/nRE5IsZWuZtCSK8CPeI0e/hF+jV7AJM4PO7KWCyr390bSiNtEtQM=);strokeColor=none;spacingTop=-3;spacingBottom=-3;spacingLeft=-3;spacingRight=-3;points=[];labelBackgroundColor=none;rounded=0;html=1;whiteSpace=wrap;" parent="1" vertex="1">
                        <mxGeometry x="521.97" y="305" width="170" height="30" as="geometry"/>
                    </mxCell>
                </UserObject>
                <UserObject label="&lt;div style=&quot;font-size: 1px&quot;&gt;&lt;font style=&quot;font-size:11.64px;font-family:Helvetica;color:#000000;direction:ltr;letter-spacing:0px;line-height:120%;opacity:1&quot;&gt;Token valid&lt;/font&gt;&lt;/div&gt;" tags="Background" id="j5F-Mz4OmRAsj-ysuy_4-10">
                    <mxCell style="verticalAlign=middle;align=center;overflow=width;vsdxID=22;fillColor=none;gradientColor=none;shape=stencil(nZBRDoQgDERP03+WHsHFe5iISyOCQdT19kIaIxq//Jtp3zTpAFaTaUYNUkwx+F6v1EYD+AUpyRkdKCYFqACrzgf9C352LfuxyWRWg1/yhT/nRE5IsZWuZtCSK8CPeI0e/hF+jV7AJM4PO7KWCyr390bSiNtEtQM=);strokeColor=none;spacingTop=-3;spacingBottom=-3;spacingLeft=-3;spacingRight=-3;points=[];labelBackgroundColor=none;rounded=0;html=1;whiteSpace=wrap;" parent="1" vertex="1">
                        <mxGeometry x="352" y="365" width="80" height="20" as="geometry"/>
                    </mxCell>
                </UserObject>
                <UserObject label="&lt;div style=&quot;font-size: 1px&quot;&gt;&lt;font style=&quot;font-size:11.64px;font-family:Helvetica;color:#000000;direction:ltr;letter-spacing:0px;line-height:120%;opacity:1&quot;&gt;Connect WhatsApp&lt;/font&gt;&lt;/div&gt;" tags="Background" id="j5F-Mz4OmRAsj-ysuy_4-11">
                    <mxCell style="verticalAlign=middle;align=center;overflow=width;vsdxID=24;fillColor=#ffffff;gradientColor=none;shape=stencil(nZBdDsIgEIRPs+8UEi9Q6wU8AZFVNiI0FH9PL+3EBI1PfduZ+SabDJl+8nZk0moqOZ35Lq54MlvSWqLnLKVeZAYy/TFlPuV0jQ56tJXUanHYodPNtFY2H/byYngbeChd0m1+9kCkED1btQMYJDZgp1ajH/0XXo1+gfVYxsBMEgK2bPPf8aqF4c3wBg==);strokeColor=#000000;spacingTop=-3;spacingBottom=-3;spacingLeft=-3;spacingRight=-3;points=[];labelBackgroundColor=none;rounded=1;html=1;whiteSpace=wrap;" parent="1" vertex="1">
                        <mxGeometry x="541.97" y="685" width="120" height="40" as="geometry"/>
                    </mxCell>
                </UserObject>
                <mxCell id="j5F-Mz4OmRAsj-ysuy_4-105" style="edgeStyle=orthogonalEdgeStyle;rounded=0;orthogonalLoop=1;jettySize=auto;html=1;" parent="1" source="j5F-Mz4OmRAsj-ysuy_4-12" target="j5F-Mz4OmRAsj-ysuy_4-103" edge="1">
                    <mxGeometry relative="1" as="geometry">
                        <Array as="points">
                            <mxPoint x="112" y="955"/>
                            <mxPoint x="172" y="955"/>
                        </Array>
                    </mxGeometry>
                </mxCell>
                <UserObject label="&lt;div style=&quot;font-size: 1px&quot;&gt;&lt;font style=&quot;font-size:11.64px;font-family:Helvetica;color:#000000;direction:ltr;letter-spacing:0px;line-height:120%;opacity:1&quot;&gt;View Event&lt;/font&gt;&lt;/div&gt;" tags="Background" id="j5F-Mz4OmRAsj-ysuy_4-12">
                    <mxCell style="verticalAlign=middle;align=center;overflow=width;vsdxID=27;fillColor=#ffffff;gradientColor=none;shape=stencil(nZBdDsIgEIRPs+8UEi9Q6wU8AZFVNiI0FH9PL+3EBI1PfduZ+SabDJl+8nZk0moqOZ35Lq54MlvSWqLnLKVeZAYy/TFlPuV0jQ56tJXUanHYodPNtFY2H/byYngbeChd0m1+9kCkED1btQMYJDZgp1ajH/0XXo1+gfVYxsBMEgK2bPPf8aqF4c3wBg==);strokeColor=#000000;spacingTop=-3;spacingBottom=-3;spacingLeft=-3;spacingRight=-3;points=[];labelBackgroundColor=none;rounded=1;html=1;whiteSpace=wrap;" parent="1" vertex="1">
                        <mxGeometry x="51.97" y="725" width="120" height="40" as="geometry"/>
                    </mxCell>
                </UserObject>
                <mxCell id="j5F-Mz4OmRAsj-ysuy_4-162" style="edgeStyle=orthogonalEdgeStyle;rounded=0;orthogonalLoop=1;jettySize=auto;html=1;entryX=0.5;entryY=0;entryDx=0;entryDy=0;" parent="1" source="j5F-Mz4OmRAsj-ysuy_4-13" target="j5F-Mz4OmRAsj-ysuy_4-128" edge="1">
                    <mxGeometry relative="1" as="geometry"/>
                </mxCell>
                <UserObject label="&lt;div style=&quot;font-size: 1px&quot;&gt;&lt;font style=&quot;font-size:11.64px;font-family:Helvetica;color:#000000;direction:ltr;letter-spacing:0px;line-height:120%;opacity:1&quot;&gt;Extract event from WhatsApp&lt;/font&gt;&lt;/div&gt;" tags="Background" id="j5F-Mz4OmRAsj-ysuy_4-13">
                    <mxCell style="verticalAlign=middle;align=center;overflow=width;vsdxID=25;fillColor=#ffffff;gradientColor=none;shape=stencil(nZBdDsIgEIRPs+8UEi9Q6wU8AZFVNiI0FH9PL+3EBI1PfduZ+SabDJl+8nZk0moqOZ35Lq54MlvSWqLnLKVeZAYy/TFlPuV0jQ56tJXUanHYodPNtFY2H/byYngbeChd0m1+9kCkED1btQMYJDZgp1ajH/0XXo1+gfVYxsBMEgK2bPPf8aqF4c3wBg==);strokeColor=#000000;spacingTop=-3;spacingBottom=-3;spacingLeft=-3;spacingRight=-3;points=[];labelBackgroundColor=none;rounded=1;html=1;whiteSpace=wrap;" parent="1" vertex="1">
                        <mxGeometry x="541.97" y="775" width="120" height="40" as="geometry"/>
                    </mxCell>
                </UserObject>
                <mxCell id="j5F-Mz4OmRAsj-ysuy_4-93" style="edgeStyle=orthogonalEdgeStyle;rounded=0;orthogonalLoop=1;jettySize=auto;html=1;" parent="1" source="j5F-Mz4OmRAsj-ysuy_4-14" target="j5F-Mz4OmRAsj-ysuy_4-91" edge="1">
                    <mxGeometry relative="1" as="geometry"/>
                </mxCell>
                <UserObject label="" tags="Background" id="j5F-Mz4OmRAsj-ysuy_4-14">
                    <mxCell style="vsdxID=31;fillColor=#ffffff;gradientColor=none;shape=stencil(nZBLDoQgEERP03uk4wnUuYeJKB0RDDKj3l5Ix/iJcTG7KnhVSRdgMel6VCDFFLzr1UxN0IAlSElWK08hKsAKsGidV513X9uwH+tEJjW4X2pYOJeLFJFiZcvuw6QheyIzcUXzF/bWukcf2b9bL2QUx4ktGcMLnf/vk8QnnhOrDQ==);strokeColor=#000000;spacingTop=-3;spacingBottom=-3;spacingLeft=-3;spacingRight=-3;points=[];labelBackgroundColor=none;rounded=0;html=1;whiteSpace=wrap;" parent="1" vertex="1">
                        <mxGeometry x="391.97" y="455" width="40" height="40" as="geometry"/>
                    </mxCell>
                </UserObject>
                <UserObject label="&lt;div style=&quot;&quot;&gt;&lt;span style=&quot;font-size: 11.64px;&quot;&gt;Add Event&lt;/span&gt;&lt;/div&gt;" tags="Background" id="j5F-Mz4OmRAsj-ysuy_4-17">
                    <mxCell style="verticalAlign=middle;align=center;overflow=width;vsdxID=40;fillColor=#ffffff;gradientColor=none;shape=stencil(nZBdDsIgEIRPs+8UEi9Q6wU8AZFVNiI0FH9PL+3EBI1PfduZ+SabDJl+8nZk0moqOZ35Lq54MlvSWqLnLKVeZAYy/TFlPuV0jQ56tJXUanHYodPNtFY2H/byYngbeChd0m1+9kCkED1btQMYJDZgp1ajH/0XXo1+gfVYxsBMEgK2bPPf8aqF4c3wBg==);strokeColor=#000000;spacingTop=-3;spacingBottom=-3;spacingLeft=-3;spacingRight=-3;points=[];labelBackgroundColor=none;rounded=1;html=1;whiteSpace=wrap;" parent="1" vertex="1">
                        <mxGeometry x="211.97" y="725" width="120" height="40" as="geometry"/>
                    </mxCell>
                </UserObject>
                <UserObject label="&lt;div style=&quot;font-size: 1px&quot;&gt;&lt;font style=&quot;font-size:11.64px;font-family:Helvetica;color:#000000;direction:ltr;letter-spacing:0px;line-height:120%;opacity:1&quot;&gt;View Calendar&lt;/font&gt;&lt;/div&gt;" tags="Background" id="j5F-Mz4OmRAsj-ysuy_4-19">
                    <mxCell style="verticalAlign=middle;align=center;overflow=width;vsdxID=43;fillColor=#ffffff;gradientColor=none;shape=stencil(nZBdDsIgEIRPs+8UEi9Q6wU8AZFVNiI0FH9PL+3EBI1PfduZ+SabDJl+8nZk0moqOZ35Lq54MlvSWqLnLKVeZAYy/TFlPuV0jQ56tJXUanHYodPNtFY2H/byYngbeChd0m1+9kCkED1btQMYJDZgp1ajH/0XXo1+gfVYxsBMEgK2bPPf8aqF4c3wBg==);strokeColor=#000000;spacingTop=-3;spacingBottom=-3;spacingLeft=-3;spacingRight=-3;points=[];labelBackgroundColor=none;rounded=1;html=1;whiteSpace=wrap;" parent="1" vertex="1">
                        <mxGeometry x="131.97" y="615" width="120" height="40" as="geometry"/>
                    </mxCell>
                </UserObject>
                <UserObject label="&lt;div style=&quot;font-size: 1px&quot;&gt;&lt;font style=&quot;font-size:11.64px;font-family:Helvetica;color:#000000;direction:ltr;letter-spacing:0px;line-height:120%;opacity:1&quot;&gt;Suggest conflict resolution&lt;/font&gt;&lt;/div&gt;" tags="Background" id="j5F-Mz4OmRAsj-ysuy_4-20">
                    <mxCell style="verticalAlign=middle;align=center;overflow=width;vsdxID=46;fillColor=#ffffff;gradientColor=none;shape=stencil(nZBdDsIgEIRPs+8UEi9Q6wU8AZFVNiI0FH9PL+3EBI1PfduZ+SabDJl+8nZk0moqOZ35Lq54MlvSWqLnLKVeZAYy/TFlPuV0jQ56tJXUanHYodPNtFY2H/byYngbeChd0m1+9kCkED1btQMYJDZgp1ajH/0XXo1+gfVYxsBMEgK2bPPf8aqF4c3wBg==);strokeColor=#000000;spacingTop=-3;spacingBottom=-3;spacingLeft=-3;spacingRight=-3;points=[];labelBackgroundColor=none;rounded=1;html=1;whiteSpace=wrap;" parent="1" vertex="1">
                        <mxGeometry x="647" y="1065" width="130" height="40" as="geometry"/>
                    </mxCell>
                </UserObject>
                <UserObject label="&lt;div style=&quot;font-size: 1px&quot;&gt;&lt;font style=&quot;font-size:11.64px;font-family:Helvetica;color:#000000;direction:ltr;letter-spacing:0px;line-height:120%;opacity:1&quot;&gt;Is Calendar Created?&lt;/font&gt;&lt;/div&gt;" tags="Background" id="j5F-Mz4OmRAsj-ysuy_4-21">
                    <mxCell style="verticalAlign=middle;align=center;overflow=width;vsdxID=21;fillColor=#ffffff;gradientColor=none;shape=stencil(nZBdDsIgEIRPs+8UEi9Q6wU8AZFVNiI0FH9PL+3EBI1PfduZ+SabDJl+8nZk0moqOZ35Lq54MlvSWqLnLKVeZAYy/TFlPuV0jQ56tJXUanHYodPNtFY2H/byYngbeChd0m1+9kCkED1btQMYJDZgp1ajH/0XXo1+gfVYxsBMEgK2bPPf8aqF4c3wBg==);strokeColor=#000000;spacingTop=-3;spacingBottom=-3;spacingLeft=-3;spacingRight=-3;points=[];labelBackgroundColor=none;rounded=1;html=1;whiteSpace=wrap;" parent="1" vertex="1">
                        <mxGeometry x="351.97" y="395" width="160" height="40" as="geometry"/>
                    </mxCell>
                </UserObject>
                <mxCell id="j5F-Mz4OmRAsj-ysuy_4-98" style="edgeStyle=orthogonalEdgeStyle;rounded=0;orthogonalLoop=1;jettySize=auto;html=1;" parent="1" source="j5F-Mz4OmRAsj-ysuy_4-22" target="j5F-Mz4OmRAsj-ysuy_4-14" edge="1">
                    <mxGeometry relative="1" as="geometry">
                        <mxPoint x="611.97" y="695" as="targetPoint"/>
                        <Array as="points">
                            <mxPoint x="494" y="475"/>
                            <mxPoint x="494" y="475"/>
                        </Array>
                    </mxGeometry>
                </mxCell>
                <UserObject label="&lt;div style=&quot;font-size: 1px&quot;&gt;&lt;font style=&quot;font-size:11.64px;font-family:Helvetica;color:#000000;direction:ltr;letter-spacing:0px;line-height:120%;opacity:1&quot;&gt;Create calendar&lt;/font&gt;&lt;/div&gt;" tags="Background" id="j5F-Mz4OmRAsj-ysuy_4-22">
                    <mxCell style="verticalAlign=middle;align=center;overflow=width;vsdxID=52;fillColor=#ffffff;gradientColor=none;shape=stencil(nZBdDsIgEIRPs+8UEi9Q6wU8AZFVNiI0FH9PL+3EBI1PfduZ+SabDJl+8nZk0moqOZ35Lq54MlvSWqLnLKVeZAYy/TFlPuV0jQ56tJXUanHYodPNtFY2H/byYngbeChd0m1+9kCkED1btQMYJDZgp1ajH/0XXo1+gfVYxsBMEgK2bPPf8aqF4c3wBg==);strokeColor=#000000;spacingTop=-3;spacingBottom=-3;spacingLeft=-3;spacingRight=-3;points=[];labelBackgroundColor=none;rounded=1;html=1;whiteSpace=wrap;" parent="1" vertex="1">
                        <mxGeometry x="551.97" y="455" width="120" height="40" as="geometry"/>
                    </mxCell>
                </UserObject>
                <mxCell id="j5F-Mz4OmRAsj-ysuy_4-140" style="edgeStyle=orthogonalEdgeStyle;rounded=0;orthogonalLoop=1;jettySize=auto;html=1;entryX=0.5;entryY=1;entryDx=0;entryDy=0;" parent="1" source="j5F-Mz4OmRAsj-ysuy_4-23" target="j5F-Mz4OmRAsj-ysuy_4-138" edge="1">
                    <mxGeometry relative="1" as="geometry"/>
                </mxCell>
                <UserObject label="&lt;div style=&quot;font-size: 1px&quot;&gt;&lt;font style=&quot;font-size:11.64px;font-family:Helvetica;color:#000000;direction:ltr;letter-spacing:0px;line-height:120%;opacity:1&quot;&gt;Manage Scheduling conflict&lt;/font&gt;&lt;/div&gt;" tags="Background" id="j5F-Mz4OmRAsj-ysuy_4-23">
                    <mxCell style="verticalAlign=middle;align=center;overflow=width;vsdxID=49;fillColor=#ffffff;gradientColor=none;shape=stencil(nZBdDsIgEIRPs+8UEi9Q6wU8AZFVNiI0FH9PL+3EBI1PfduZ+SabDJl+8nZk0moqOZ35Lq54MlvSWqLnLKVeZAYy/TFlPuV0jQ56tJXUanHYodPNtFY2H/byYngbeChd0m1+9kCkED1btQMYJDZgp1ajH/0XXo1+gfVYxsBMEgK2bPPf8aqF4c3wBg==);strokeColor=#000000;spacingTop=-3;spacingBottom=-3;spacingLeft=-3;spacingRight=-3;points=[];labelBackgroundColor=none;rounded=1;html=1;whiteSpace=wrap;" parent="1" vertex="1">
                        <mxGeometry x="466.97" y="1065" width="130" height="40" as="geometry"/>
                    </mxCell>
                </UserObject>
                <UserObject label="&lt;div style=&quot;font-size: 1px&quot;&gt;&lt;font style=&quot;font-size:11.64px;font-family:Helvetica;color:#000000;direction:ltr;letter-spacing:0px;line-height:120%;opacity:1&quot;&gt;No&lt;/font&gt;&lt;/div&gt;" tags="Background" id="j5F-Mz4OmRAsj-ysuy_4-31">
                    <mxCell style="verticalAlign=middle;align=center;overflow=width;vsdxID=70;fillColor=none;gradientColor=none;shape=stencil(nZBRDoQgDERP03+WHsHFe5iISyOCQdT19kIaIxq//Jtp3zTpAFaTaUYNUkwx+F6v1EYD+AUpyRkdKCYFqACrzgf9C352LfuxyWRWg1/yhT/nRE5IsZWuZtCSK8CPeI0e/hF+jV7AJM4PO7KWCyr390bSiNtEtQM=);strokeColor=none;spacingTop=-3;spacingBottom=-3;spacingLeft=-3;spacingRight=-3;points=[];labelBackgroundColor=none;rounded=0;html=1;whiteSpace=wrap;" parent="1" vertex="1">
                        <mxGeometry x="511.97" y="385" width="60" height="30" as="geometry"/>
                    </mxCell>
                </UserObject>
                <UserObject label="&lt;div style=&quot;font-size: 1px&quot;&gt;&lt;font style=&quot;font-size:11.64px;font-family:Helvetica;color:#000000;direction:ltr;letter-spacing:0px;line-height:120%;opacity:1&quot;&gt;Yes&lt;/font&gt;&lt;/div&gt;" tags="Background" id="j5F-Mz4OmRAsj-ysuy_4-32">
                    <mxCell style="verticalAlign=middle;align=center;overflow=width;vsdxID=71;fillColor=none;gradientColor=none;shape=stencil(nZBRDoQgDERP03+WHsHFe5iISyOCQdT19kIaIxq//Jtp3zTpAFaTaUYNUkwx+F6v1EYD+AUpyRkdKCYFqACrzgf9C352LfuxyWRWg1/yhT/nRE5IsZWuZtCSK8CPeI0e/hF+jV7AJM4PO7KWCyr390bSiNtEtQM=);strokeColor=none;spacingTop=-3;spacingBottom=-3;spacingLeft=-3;spacingRight=-3;points=[];labelBackgroundColor=none;rounded=0;html=1;whiteSpace=wrap;" parent="1" vertex="1">
                        <mxGeometry x="292" y="385" width="60" height="30" as="geometry"/>
                    </mxCell>
                </UserObject>
                <UserObject label="" tags="Background" id="j5F-Mz4OmRAsj-ysuy_4-39">
                    <mxCell style="vsdxID=13;edgeStyle=none;startArrow=none;endArrow=classic;startSize=5;endSize=5;strokeColor=#000000;spacingTop=0;spacingBottom=0;spacingLeft=0;spacingRight=0;verticalAlign=middle;html=1;labelBackgroundColor=#ffffff;rounded=0;entryX=0.5;entryY=0;entryDx=0;entryDy=0;entryPerimeter=0;" parent="1" source="j5F-Mz4OmRAsj-ysuy_4-126" target="j5F-Mz4OmRAsj-ysuy_4-7" edge="1">
                        <mxGeometry relative="1" as="geometry">
                            <mxPoint y="121" as="offset"/>
                            <Array as="points"/>
                            <mxPoint x="431.97" y="325" as="sourcePoint"/>
                        </mxGeometry>
                    </mxCell>
                </UserObject>
                <mxCell id="j5F-Mz4OmRAsj-ysuy_4-40" parent="1" vertex="1">
                    <mxGeometry x="712" y="145" as="geometry"/>
                </mxCell>
                <UserObject label="" tags="Background" id="j5F-Mz4OmRAsj-ysuy_4-41">
                    <mxCell style="vsdxID=15;edgeStyle=none;startArrow=none;endArrow=classic;startSize=5;endSize=5;strokeColor=#000000;spacingTop=0;spacingBottom=0;spacingLeft=0;spacingRight=0;verticalAlign=middle;html=1;labelBackgroundColor=#ffffff;rounded=0;exitX=1;exitY=0.5;exitDx=0;exitDy=0;exitPerimeter=0;entryX=1.004;entryY=0.501;entryDx=0;entryDy=0;entryPerimeter=0;" parent="1" source="j5F-Mz4OmRAsj-ysuy_4-7" target="j5F-Mz4OmRAsj-ysuy_4-2" edge="1">
                        <mxGeometry relative="1" as="geometry">
                            <mxPoint x="-201" y="151" as="offset"/>
                            <Array as="points">
                                <mxPoint x="714" y="335"/>
                                <mxPoint x="712" y="90"/>
                            </Array>
                            <mxPoint x="692" y="145" as="targetPoint"/>
                        </mxGeometry>
                    </mxCell>
                </UserObject>
                <mxCell id="j5F-Mz4OmRAsj-ysuy_4-43" parent="1" vertex="1">
                    <mxGeometry x="712" y="145" as="geometry"/>
                </mxCell>
                <UserObject label="" tags="Background" id="j5F-Mz4OmRAsj-ysuy_4-45">
                    <mxCell style="vsdxID=20;edgeStyle=none;startArrow=none;endArrow=classic;startSize=5;endSize=5;strokeColor=#000000;spacingTop=0;spacingBottom=0;spacingLeft=0;spacingRight=0;verticalAlign=middle;html=1;labelBackgroundColor=#ffffff;rounded=0;exitX=0.5;exitY=1.033;exitDx=0;exitDy=0;exitPerimeter=0;entryX=0.5;entryY=0;entryDx=0;entryDy=0;entryPerimeter=0;" parent="1" source="j5F-Mz4OmRAsj-ysuy_4-7" target="j5F-Mz4OmRAsj-ysuy_4-21" edge="1">
                        <mxGeometry relative="1" as="geometry">
                            <mxPoint y="126" as="offset"/>
                            <Array as="points"/>
                            <mxPoint x="452" y="545" as="sourcePoint"/>
                        </mxGeometry>
                    </mxCell>
                </UserObject>
                <mxCell id="j5F-Mz4OmRAsj-ysuy_4-48" parent="1" vertex="1">
                    <mxGeometry x="191.97" y="775" as="geometry"/>
                </mxCell>
                <mxCell id="j5F-Mz4OmRAsj-ysuy_4-54" parent="1" vertex="1">
                    <mxGeometry x="531.97" y="915" as="geometry"/>
                </mxCell>
                <UserObject label="" tags="Background" id="j5F-Mz4OmRAsj-ysuy_4-64">
                    <mxCell style="vsdxID=51;edgeStyle=none;startArrow=none;endArrow=classic;startSize=5;endSize=5;strokeColor=#000000;spacingTop=0;spacingBottom=0;spacingLeft=0;spacingRight=0;verticalAlign=middle;html=1;labelBackgroundColor=#ffffff;rounded=0;exitX=1;exitY=0.5;exitDx=0;exitDy=0;exitPerimeter=0;entryX=0.5;entryY=0;entryDx=0;entryDy=0;entryPerimeter=0;" parent="1" source="j5F-Mz4OmRAsj-ysuy_4-21" target="j5F-Mz4OmRAsj-ysuy_4-22" edge="1">
                        <mxGeometry relative="1" as="geometry">
                            <mxPoint x="-55" y="131" as="offset"/>
                            <Array as="points">
                                <mxPoint x="612" y="415"/>
                            </Array>
                        </mxGeometry>
                    </mxCell>
                </UserObject>
                <mxCell id="j5F-Mz4OmRAsj-ysuy_4-65" parent="1" vertex="1">
                    <mxGeometry x="271.97" y="635" as="geometry"/>
                </mxCell>
                <UserObject label="" tags="Background" id="j5F-Mz4OmRAsj-ysuy_4-66">
                    <mxCell style="vsdxID=53;edgeStyle=none;startArrow=none;endArrow=classic;startSize=5;endSize=5;strokeColor=#000000;spacingTop=0;spacingBottom=0;spacingLeft=0;spacingRight=0;verticalAlign=middle;html=1;labelBackgroundColor=#ffffff;rounded=0;exitX=0;exitY=0.5;exitDx=0;exitDy=0;exitPerimeter=0;entryX=-0.046;entryY=0.481;entryDx=0;entryDy=0;entryPerimeter=0;" parent="1" source="j5F-Mz4OmRAsj-ysuy_4-21" target="j5F-Mz4OmRAsj-ysuy_4-14" edge="1">
                        <mxGeometry relative="1" as="geometry">
                            <mxPoint x="79" y="186" as="offset"/>
                            <Array as="points">
                                <mxPoint x="274" y="415"/>
                                <mxPoint x="274" y="474"/>
                            </Array>
                        </mxGeometry>
                    </mxCell>
                </UserObject>
                <mxCell id="j5F-Mz4OmRAsj-ysuy_4-69" parent="1" vertex="1">
                    <mxGeometry x="191.97" y="775" as="geometry"/>
                </mxCell>
                <mxCell id="j5F-Mz4OmRAsj-ysuy_4-81" style="edgeStyle=orthogonalEdgeStyle;rounded=0;orthogonalLoop=1;jettySize=auto;html=1;entryX=0.5;entryY=0;entryDx=0;entryDy=0;entryPerimeter=0;" parent="1" source="j5F-Mz4OmRAsj-ysuy_4-19" target="j5F-Mz4OmRAsj-ysuy_4-17" edge="1">
                    <mxGeometry relative="1" as="geometry"/>
                </mxCell>
                <UserObject label="&lt;div style=&quot;font-size: 1px&quot;&gt;&lt;font style=&quot;font-size:11.64px;font-family:Helvetica;color:#000000;direction:ltr;letter-spacing:0px;line-height:120%;opacity:1&quot;&gt;Open Settings&lt;/font&gt;&lt;/div&gt;" tags="Background" id="j5F-Mz4OmRAsj-ysuy_4-82">
                    <mxCell style="verticalAlign=middle;align=center;overflow=width;vsdxID=24;fillColor=#ffffff;gradientColor=none;shape=stencil(nZBdDsIgEIRPs+8UEi9Q6wU8AZFVNiI0FH9PL+3EBI1PfduZ+SabDJl+8nZk0moqOZ35Lq54MlvSWqLnLKVeZAYy/TFlPuV0jQ56tJXUanHYodPNtFY2H/byYngbeChd0m1+9kCkED1btQMYJDZgp1ajH/0XXo1+gfVYxsBMEgK2bPPf8aqF4c3wBg==);strokeColor=#000000;spacingTop=-3;spacingBottom=-3;spacingLeft=-3;spacingRight=-3;points=[];labelBackgroundColor=none;rounded=1;html=1;whiteSpace=wrap;" parent="1" vertex="1">
                        <mxGeometry x="541.97" y="615" width="120" height="40" as="geometry"/>
                    </mxCell>
                </UserObject>
                <mxCell id="j5F-Mz4OmRAsj-ysuy_4-83" style="edgeStyle=orthogonalEdgeStyle;rounded=0;orthogonalLoop=1;jettySize=auto;html=1;entryX=0.527;entryY=-0.016;entryDx=0;entryDy=0;entryPerimeter=0;" parent="1" source="j5F-Mz4OmRAsj-ysuy_4-19" target="j5F-Mz4OmRAsj-ysuy_4-12" edge="1">
                    <mxGeometry relative="1" as="geometry"/>
                </mxCell>
                <mxCell id="j5F-Mz4OmRAsj-ysuy_4-154" style="edgeStyle=orthogonalEdgeStyle;rounded=0;orthogonalLoop=1;jettySize=auto;html=1;entryX=1;entryY=0.5;entryDx=0;entryDy=0;entryPerimeter=0;" parent="1" source="j5F-Mz4OmRAsj-ysuy_4-84" target="j5F-Mz4OmRAsj-ysuy_4-91" edge="1">
                    <mxGeometry relative="1" as="geometry">
                        <mxPoint x="584" y="535" as="targetPoint"/>
                        <Array as="points">
                            <mxPoint x="742" y="765"/>
                            <mxPoint x="810" y="765"/>
                            <mxPoint x="810" y="540"/>
                        </Array>
                    </mxGeometry>
                </mxCell>
                <UserObject label="&lt;div style=&quot;font-size: 1px&quot;&gt;&lt;font style=&quot;font-size: 11.64px; font-family: Helvetica; color: rgb(0, 0, 0); direction: ltr; letter-spacing: 0px; line-height: 120%; opacity: 1;&quot;&gt;Connect Calendar&lt;/font&gt;&lt;/div&gt;" tags="Background" id="j5F-Mz4OmRAsj-ysuy_4-84">
                    <mxCell style="verticalAlign=middle;align=center;overflow=width;vsdxID=24;fillColor=#ffffff;gradientColor=none;shape=stencil(nZBdDsIgEIRPs+8UEi9Q6wU8AZFVNiI0FH9PL+3EBI1PfduZ+SabDJl+8nZk0moqOZ35Lq54MlvSWqLnLKVeZAYy/TFlPuV0jQ56tJXUanHYodPNtFY2H/byYngbeChd0m1+9kCkED1btQMYJDZgp1ajH/0XXo1+gfVYxsBMEgK2bPPf8aqF4c3wBg==);strokeColor=#000000;spacingTop=-3;spacingBottom=-3;spacingLeft=-3;spacingRight=-3;points=[];labelBackgroundColor=none;rounded=1;html=1;whiteSpace=wrap;" parent="1" vertex="1">
                        <mxGeometry x="681.97" y="685" width="120" height="40" as="geometry"/>
                    </mxCell>
                </UserObject>
                <UserObject label="&lt;div style=&quot;&quot;&gt;&lt;span style=&quot;font-size: 11.64px;&quot;&gt;Logout&lt;/span&gt;&lt;/div&gt;" tags="Background" id="j5F-Mz4OmRAsj-ysuy_4-85">
                    <mxCell style="verticalAlign=middle;align=center;overflow=width;vsdxID=24;fillColor=#ffffff;gradientColor=none;shape=stencil(nZBdDsIgEIRPs+8UEi9Q6wU8AZFVNiI0FH9PL+3EBI1PfduZ+SabDJl+8nZk0moqOZ35Lq54MlvSWqLnLKVeZAYy/TFlPuV0jQ56tJXUanHYodPNtFY2H/byYngbeChd0m1+9kCkED1btQMYJDZgp1ajH/0XXo1+gfVYxsBMEgK2bPPf8aqF4c3wBg==);strokeColor=#000000;spacingTop=-3;spacingBottom=-3;spacingLeft=-3;spacingRight=-3;points=[];labelBackgroundColor=none;rounded=1;html=1;whiteSpace=wrap;" parent="1" vertex="1">
                        <mxGeometry x="401.97" y="685" width="120" height="40" as="geometry"/>
                    </mxCell>
                </UserObject>
                <mxCell id="j5F-Mz4OmRAsj-ysuy_4-88" style="edgeStyle=orthogonalEdgeStyle;rounded=0;orthogonalLoop=1;jettySize=auto;html=1;entryX=0.504;entryY=0.005;entryDx=0;entryDy=0;entryPerimeter=0;" parent="1" source="j5F-Mz4OmRAsj-ysuy_4-82" target="j5F-Mz4OmRAsj-ysuy_4-84" edge="1">
                    <mxGeometry relative="1" as="geometry"/>
                </mxCell>
                <mxCell id="j5F-Mz4OmRAsj-ysuy_4-89" style="edgeStyle=orthogonalEdgeStyle;rounded=0;orthogonalLoop=1;jettySize=auto;html=1;entryX=0.502;entryY=-0.048;entryDx=0;entryDy=0;entryPerimeter=0;" parent="1" source="j5F-Mz4OmRAsj-ysuy_4-82" target="j5F-Mz4OmRAsj-ysuy_4-11" edge="1">
                    <mxGeometry relative="1" as="geometry">
                        <mxPoint x="471.97" y="935" as="targetPoint"/>
                    </mxGeometry>
                </mxCell>
                <mxCell id="j5F-Mz4OmRAsj-ysuy_4-91" value="" style="shape=line;html=1;strokeWidth=6;strokeColor=#ff0000;" parent="1" vertex="1">
                    <mxGeometry x="312" y="535" width="200" height="10" as="geometry"/>
                </mxCell>
                <mxCell id="j5F-Mz4OmRAsj-ysuy_4-95" style="edgeStyle=orthogonalEdgeStyle;rounded=0;orthogonalLoop=1;jettySize=auto;html=1;entryX=0.506;entryY=0.008;entryDx=0;entryDy=0;entryPerimeter=0;" parent="1" source="j5F-Mz4OmRAsj-ysuy_4-91" target="j5F-Mz4OmRAsj-ysuy_4-82" edge="1">
                    <mxGeometry relative="1" as="geometry">
                        <Array as="points">
                            <mxPoint x="412" y="585"/>
                            <mxPoint x="603" y="585"/>
                        </Array>
                    </mxGeometry>
                </mxCell>
                <mxCell id="j5F-Mz4OmRAsj-ysuy_4-96" style="edgeStyle=orthogonalEdgeStyle;rounded=0;orthogonalLoop=1;jettySize=auto;html=1;entryX=0.5;entryY=0;entryDx=0;entryDy=0;entryPerimeter=0;" parent="1" source="j5F-Mz4OmRAsj-ysuy_4-91" target="j5F-Mz4OmRAsj-ysuy_4-19" edge="1">
                    <mxGeometry relative="1" as="geometry">
                        <Array as="points">
                            <mxPoint x="412" y="585"/>
                            <mxPoint x="192" y="585"/>
                        </Array>
                    </mxGeometry>
                </mxCell>
                <mxCell id="j5F-Mz4OmRAsj-ysuy_4-100" style="edgeStyle=orthogonalEdgeStyle;rounded=0;orthogonalLoop=1;jettySize=auto;html=1;entryX=0.493;entryY=-0.01;entryDx=0;entryDy=0;entryPerimeter=0;" parent="1" source="j5F-Mz4OmRAsj-ysuy_4-85" target="j5F-Mz4OmRAsj-ysuy_4-28" edge="1">
                    <mxGeometry relative="1" as="geometry"/>
                </mxCell>
                <mxCell id="j5F-Mz4OmRAsj-ysuy_4-101" style="edgeStyle=orthogonalEdgeStyle;rounded=0;orthogonalLoop=1;jettySize=auto;html=1;entryX=0.501;entryY=0.053;entryDx=0;entryDy=0;entryPerimeter=0;" parent="1" source="j5F-Mz4OmRAsj-ysuy_4-11" target="j5F-Mz4OmRAsj-ysuy_4-13" edge="1">
                    <mxGeometry relative="1" as="geometry"/>
                </mxCell>
                <mxCell id="j5F-Mz4OmRAsj-ysuy_4-103" value="" style="shape=line;html=1;strokeWidth=6;strokeColor=#ff0000;" parent="1" vertex="1">
                    <mxGeometry x="81.97" y="985" width="200" height="10" as="geometry"/>
                </mxCell>
                <mxCell id="j5F-Mz4OmRAsj-ysuy_4-108" style="edgeStyle=orthogonalEdgeStyle;rounded=0;orthogonalLoop=1;jettySize=auto;html=1;entryX=0;entryY=0.5;entryDx=0;entryDy=0;entryPerimeter=0;" parent="1" source="j5F-Mz4OmRAsj-ysuy_4-103" target="j5F-Mz4OmRAsj-ysuy_4-91" edge="1">
                    <mxGeometry relative="1" as="geometry">
                        <Array as="points">
                            <mxPoint x="182" y="1145"/>
                            <mxPoint x="12" y="1145"/>
                            <mxPoint x="12" y="540"/>
                        </Array>
                    </mxGeometry>
                </mxCell>
                <UserObject label="" tags="Background" id="j5F-Mz4OmRAsj-ysuy_4-28">
                    <mxCell style="vsdxID=67;fillColor=#000000;gradientColor=none;shape=stencil(vVPbDoIwDP2aPY7MVQjvXv5j0QGLyEiZgn/vZsELYjQx+tb2nHWnPSmDRVOoWjMpGod2p1uzdQWDJZPSVIVG43zEYMVgkVnUOdpDtaW8VoEZor09hg4dvZtBBPPwSooTVWJxSdfEVrjxEA7sNAIgNp6eSj0pTaIkmWopOq4603C0TjljKwJ7rFSYa+6/41mp8r43QU2rdX1X/lbgy5l/ItAHt+VnpizJuyv+yhnxsSsyfpx4yIdxxWSrP7jxRtj/ZD14MNq/D8bH4kt0aLA6Aw==);strokeColor=#ff0000;spacingTop=-3;spacingBottom=-3;spacingLeft=-3;spacingRight=-3;points=[];labelBackgroundColor=none;rounded=0;html=1;whiteSpace=wrap;" parent="1" vertex="1">
                        <mxGeometry x="446.97" y="785" width="30" height="30" as="geometry"/>
                    </mxCell>
                </UserObject>
                <mxCell id="j5F-Mz4OmRAsj-ysuy_4-114" style="edgeStyle=orthogonalEdgeStyle;rounded=0;orthogonalLoop=1;jettySize=auto;html=1;entryX=0.498;entryY=-0.031;entryDx=0;entryDy=0;entryPerimeter=0;" parent="1" source="j5F-Mz4OmRAsj-ysuy_4-82" target="j5F-Mz4OmRAsj-ysuy_4-85" edge="1">
                    <mxGeometry relative="1" as="geometry"/>
                </mxCell>
                <mxCell id="j5F-Mz4OmRAsj-ysuy_4-118" style="edgeStyle=orthogonalEdgeStyle;rounded=0;orthogonalLoop=1;jettySize=auto;html=1;" parent="1" source="j5F-Mz4OmRAsj-ysuy_4-5" target="j5F-Mz4OmRAsj-ysuy_4-126" edge="1">
                    <mxGeometry relative="1" as="geometry">
                        <mxPoint x="451.33000000000015" y="305.4000000000001" as="targetPoint"/>
                        <Array as="points">
                            <mxPoint x="452" y="225"/>
                        </Array>
                    </mxGeometry>
                </mxCell>
                <mxCell id="j5F-Mz4OmRAsj-ysuy_4-119" style="edgeStyle=orthogonalEdgeStyle;rounded=0;orthogonalLoop=1;jettySize=auto;html=1;" parent="1" source="j5F-Mz4OmRAsj-ysuy_4-4" target="j5F-Mz4OmRAsj-ysuy_4-126" edge="1">
                    <mxGeometry relative="1" as="geometry">
                        <mxPoint x="412.0100000000002" y="305" as="targetPoint"/>
                        <Array as="points">
                            <mxPoint x="412" y="225"/>
                        </Array>
                    </mxGeometry>
                </mxCell>
                <mxCell id="j5F-Mz4OmRAsj-ysuy_4-124" value="s" style="edgeStyle=orthogonalEdgeStyle;rounded=0;orthogonalLoop=1;jettySize=auto;html=1;entryX=0.482;entryY=0.013;entryDx=0;entryDy=0;entryPerimeter=0;" parent="1" source="j5F-Mz4OmRAsj-ysuy_4-3" target="j5F-Mz4OmRAsj-ysuy_4-5" edge="1">
                    <mxGeometry relative="1" as="geometry">
                        <Array as="points">
                            <mxPoint x="432" y="170"/>
                            <mxPoint x="610" y="170"/>
                        </Array>
                    </mxGeometry>
                </mxCell>
                <UserObject label="" tags="Background" id="j5F-Mz4OmRAsj-ysuy_4-126">
                    <mxCell style="vsdxID=5;fillColor=#ffffff;gradientColor=none;shape=stencil(fY9LDoAgDERP0z3SeALFe5iI0qhAEH+3F9KFxIW7mfa1nQI2m+m9Bim2GNysTxqiAWxBSrJGB4pJASrAZnRBT8HtdmDv+0xmtbojb7h4TuQJKW52NduOyYVsQVbij03iPcHpyt43TirxK6ge);strokeColor=#ff0000;strokeWidth=6;spacingTop=-3;spacingBottom=-3;spacingLeft=-3;spacingRight=-3;points=[];labelBackgroundColor=none;rounded=0;html=1;whiteSpace=wrap;" parent="1" vertex="1">
                        <mxGeometry x="331.97" y="275" width="200" height="10" as="geometry"/>
                    </mxCell>
                </UserObject>
                <mxCell id="j5F-Mz4OmRAsj-ysuy_4-139" style="edgeStyle=orthogonalEdgeStyle;rounded=0;orthogonalLoop=1;jettySize=auto;html=1;entryX=1;entryY=0.5;entryDx=0;entryDy=0;" parent="1" source="j5F-Mz4OmRAsj-ysuy_4-128" target="j5F-Mz4OmRAsj-ysuy_4-138" edge="1">
                    <mxGeometry relative="1" as="geometry"/>
                </mxCell>
                <mxCell id="j5F-Mz4OmRAsj-ysuy_4-128" value="Has Conflicts?" style="shape=hexagon;perimeter=hexagonPerimeter2;whiteSpace=wrap;html=1;fixedSize=1;" parent="1" vertex="1">
                    <mxGeometry x="541.97" y="945" width="120" height="40" as="geometry"/>
                </mxCell>
                <mxCell id="j5F-Mz4OmRAsj-ysuy_4-136" value="No" style="text;html=1;align=center;verticalAlign=middle;resizable=0;points=[];autosize=1;strokeColor=none;fillColor=none;" parent="1" vertex="1">
                    <mxGeometry x="501.97" y="935" width="40" height="30" as="geometry"/>
                </mxCell>
                <mxCell id="j5F-Mz4OmRAsj-ysuy_4-137" value="Yes" style="text;html=1;align=center;verticalAlign=middle;resizable=0;points=[];autosize=1;strokeColor=none;fillColor=none;" parent="1" vertex="1">
                    <mxGeometry x="661.97" y="935" width="40" height="30" as="geometry"/>
                </mxCell>
                <mxCell id="j5F-Mz4OmRAsj-ysuy_4-138" value="" style="rhombus;whiteSpace=wrap;html=1;" parent="1" vertex="1">
                    <mxGeometry x="352" y="975" width="80" height="80" as="geometry"/>
                </mxCell>
                <mxCell id="j5F-Mz4OmRAsj-ysuy_4-163" style="edgeStyle=orthogonalEdgeStyle;rounded=0;orthogonalLoop=1;jettySize=auto;html=1;entryX=0.992;entryY=0.503;entryDx=0;entryDy=0;entryPerimeter=0;" parent="1" source="j5F-Mz4OmRAsj-ysuy_4-20" target="j5F-Mz4OmRAsj-ysuy_4-23" edge="1">
                    <mxGeometry relative="1" as="geometry"/>
                </mxCell>
                <mxCell id="j5F-Mz4OmRAsj-ysuy_4-164" style="edgeStyle=orthogonalEdgeStyle;rounded=0;orthogonalLoop=1;jettySize=auto;html=1;entryX=0.507;entryY=0.035;entryDx=0;entryDy=0;entryPerimeter=0;" parent="1" source="j5F-Mz4OmRAsj-ysuy_4-128" target="j5F-Mz4OmRAsj-ysuy_4-20" edge="1">
                    <mxGeometry relative="1" as="geometry"/>
                </mxCell>
                <mxCell id="j5F-Mz4OmRAsj-ysuy_4-165" style="edgeStyle=orthogonalEdgeStyle;rounded=0;orthogonalLoop=1;jettySize=auto;html=1;entryX=0.509;entryY=-0.042;entryDx=0;entryDy=0;entryPerimeter=0;" parent="1" source="j5F-Mz4OmRAsj-ysuy_4-1" target="j5F-Mz4OmRAsj-ysuy_4-2" edge="1">
                    <mxGeometry relative="1" as="geometry"/>
                </mxCell>
                <mxCell id="j5F-Mz4OmRAsj-ysuy_4-166" style="edgeStyle=orthogonalEdgeStyle;rounded=0;orthogonalLoop=1;jettySize=auto;html=1;entryX=0.52;entryY=-0.011;entryDx=0;entryDy=0;entryPerimeter=0;" parent="1" source="j5F-Mz4OmRAsj-ysuy_4-3" target="j5F-Mz4OmRAsj-ysuy_4-4" edge="1">
                    <mxGeometry relative="1" as="geometry">
                        <Array as="points">
                            <mxPoint x="432" y="170"/>
                            <mxPoint x="234" y="170"/>
                        </Array>
                    </mxGeometry>
                </mxCell>
                <mxCell id="j5F-Mz4OmRAsj-ysuy_4-167" style="edgeStyle=orthogonalEdgeStyle;rounded=0;orthogonalLoop=1;jettySize=auto;html=1;entryX=1;entryY=0.5;entryDx=0;entryDy=0;entryPerimeter=0;" parent="1" source="j5F-Mz4OmRAsj-ysuy_4-138" target="j5F-Mz4OmRAsj-ysuy_4-91" edge="1">
                    <mxGeometry relative="1" as="geometry">
                        <Array as="points">
                            <mxPoint x="320" y="1015"/>
                            <mxPoint x="320" y="1140"/>
                            <mxPoint x="810" y="1140"/>
                            <mxPoint x="810" y="540"/>
                        </Array>
                    </mxGeometry>
                </mxCell>
                <mxCell id="4" style="edgeStyle=orthogonalEdgeStyle;rounded=0;orthogonalLoop=1;jettySize=auto;html=1;" edge="1" parent="1" source="j5F-Mz4OmRAsj-ysuy_4-17">
                    <mxGeometry relative="1" as="geometry">
                        <Array as="points">
                            <mxPoint x="280" y="955"/>
                            <mxPoint x="190" y="955"/>
                        </Array>
                        <mxPoint x="111.97" y="765" as="sourcePoint"/>
                        <mxPoint x="190" y="985" as="targetPoint"/>
                    </mxGeometry>
                </mxCell>
            </root>
        </mxGraphModel>
    </diagram>
    <diagram name="Page-2" id="haEWimlYkSN_zB_LkXNx">
        <mxGraphModel style="default-style2">
            <root>
                <mxCell id="0"/>
                <mxCell id="1" parent="0"/>
                <UserObject label="" tags="Background Background" id="2">
                    <mxCell vertex="1" parent="1" visible="0">
                        <mxGeometry as="geometry"/>
                    </mxCell>
                </UserObject>
            </root>
        </mxGraphModel>
    </diagram>
</mxfile>